<svg width="1024" height="1024" fill="none" xmlns="http://www.w3.org/2000/svg"><circle cx="511.5" cy="511.5" r="462.5" fill="#fff"/><g filter="url(#a)"><path opacity=".3" d="M638.937 541.566c0-.046-.005-.091-.007-.137a4.293 4.293 0 0 0-.104-.801l-.012-.057a5.65 5.65 0 0 0-.303-.874c-.026-.06-.051-.122-.08-.183a8.218 8.218 0 0 0-.49-.898c-.036-.06-.079-.12-.118-.18a12.196 12.196 0 0 0-.684-.944l-.04-.051a16.527 16.527 0 0 0-.908-1.019 24.394 24.394 0 0 0-1.284-1.244c-.077-.071-.16-.141-.239-.212-.421-.37-.861-.744-1.346-1.129-20.588-16.351-91.706-39.382-158.845-51.441a755.043 755.043 0 0 0-4.388-.772l-.966-.166a594.576 594.576 0 0 0-8.537-1.403l-.822-.13a639.632 639.632 0 0 0-3.957-.601l-.865-.126a546.493 546.493 0 0 0-3.627-.52l-.411-.058a453.694 453.694 0 0 0-4.686-.627 476.314 476.314 0 0 0-3.711-.465l-.297-.035a525.01 525.01 0 0 0-3.408-.395l-.761-.085a429.326 429.326 0 0 0-4.075-.424 331.77 331.77 0 0 0-3.028-.288l-.558-.051a313.92 313.92 0 0 0-3.224-.27l-.711-.055c-1.03-.078-2.047-.153-3.044-.218l-.15-.011c-1.032-.066-2.04-.125-3.034-.179l-.669-.033c-.976-.05-1.936-.095-2.875-.13l-.367-.013a212.65 212.65 0 0 0-2.529-.076l-.537-.013c-.887-.019-1.756-.03-2.605-.035l-.515-.001c-.776-.002-1.539 0-2.284.009l-.322.002a133.26 133.26 0 0 0-5.123.179 94.457 94.457 0 0 0-2.138.152l-.446.037c-.664.057-1.31.121-1.933.192l-.318.039a58.14 58.14 0 0 0-1.617.215c-.109.016-.218.03-.326.047a45.805 45.805 0 0 0-1.988.352c-.494.099-.973.201-1.428.312-.04.009-.084.018-.124.029a25.55 25.55 0 0 0-1.664.468c-.424.134-.83.271-1.209.419-.044.017-.083.035-.128.052-.345.137-.667.28-.973.429-.071.034-.143.066-.212.102a11.18 11.18 0 0 0-.891.502c-.055.034-.104.071-.157.106a7.778 7.778 0 0 0-.67.499c-.034.029-.072.057-.106.085-.216.191-.407.39-.577.593-.038.046-.074.093-.11.14a4.192 4.192 0 0 0-.424.649c0 .002 0 .003-.002.004a3.614 3.614 0 0 0-.256.693c-.007.027-.023.053-.03.082L354.682 606.96c-.871 3.783-1.986 8.854-2.392 12.715-.092.866-.177 1.682-.26 2.476-.274 2.029-.494 3.998-.613 5.798-.031.489-.061 1-.089 1.525-.329 4.096-.428 7.417-.217 11.328.059 3.147.275 7.235.68 10.298.279 2.611.751 5.924 1.237 8.757l.051.3c.031.185.064.363.097.543.028.158.056.323.085.476l.043.23.027.146.042.214c.571 3.017 1.344 6.817 2.223 9.639.834 3.053 2.136 7.07 3.17 10.061.925 2.676 2.336 6.118 3.531 8.793l.001.005c1.163 2.901 3.111 6.596 4.602 9.341.104.191.207.37.311.561l.066.13c1.514 3 3.851 6.829 5.82 9.582a134.881 134.881 0 0 0 4.848 6.781c1.755 2.301 4.202 5.286 6.129 7.443.119.135.249.276.373.413.196.218.396.452.59.661.759.824 1.613 1.72 2.505 2.638a263.569 263.569 0 0 0 3.811 3.86c2.832 2.809 5.93 5.432 8.649 7.594a90.318 90.318 0 0 0 4.219 3.235c.914.678 1.688 1.238 2.25 1.645.348.252 2.192 1.571 4.945 3.332l.218.139c1.53.974 3.325 2.073 5.302 3.202a97.549 97.549 0 0 0 4.426 2.408c3.867 1.964 3.886 1.974 7.749 3.716.029.015.06.028.089.041.186.082 1.307.576 3.053 1.284.857.353 1.704.683 2.545 1.007.633.243 1.297.494 2 .753.174.063.356.137.529.198.223.08.485.172.765.27 1.63.58 3.387 1.171 5.195 1.721.771.236 2.165.659 4.012 1.164l.158.044c.283.077.574.154.876.235 1.838.49 3.83.976 5.94 1.429l.619.133c.161.033.322.067.484.099 1.076.224 2.19.441 3.347.645l.478.079c.465.083.974.166 1.534.255l.446.072c3.62.566 8.977 1.236 15.593 1.507 1.109.046 2.176.075 3.215.092l.376.008c.184.002.363.005.545.006 3.087.042 5.846-.022 8.116-.154 3.824-.193 6.369-.499 7.123-.598l.389-.051c2.668-.289 5.355-.649 7.613-1.088l.125-.025c2.263-.396 4.969-.9 7.035-1.431l1.094-.278c.65-.15 1.284-.301 1.872-.449 2.628-.663 6.102-1.669 8.663-2.553 2.972-1.028 6.957-2.37 9.806-3.704.226-.106.466-.217.705-.327a148.495 148.495 0 0 0 8.027-3.762c.059-.03.124-.065.185-.095.276-.141.558-.29.842-.438 2.623-1.369 5.778-3.068 8.072-4.608.035-.025.076-.049.111-.074a134.228 134.228 0 0 0 7.683-5.146c.132-.094.271-.191.399-.285.076-.055.157-.118.235-.174 4.525-3.301 7.369-5.798 7.55-5.957.026-.024.052-.046.078-.068l.303-.257a85.142 85.142 0 0 0 2.307-2.064c3.516-3.159 7.272-6.74 11.861-12.103 2.096-2.285 4.569-5.583 6.412-8.116a.383.383 0 0 0 .016-.021c.027-.035.056-.077.082-.112a71.825 71.825 0 0 0 1.567-2.254 132.515 132.515 0 0 0 4.098-6.236c1.769-2.654 3.723-6.446 5.169-9.286a82.043 82.043 0 0 0 1.829-3.87 123.724 123.724 0 0 0 2.361-5.313c1.058-2.562 2.267-5.904 3.223-8.759l.099-.27c.887-2.429 1.663-5.614 2.39-8.378.179-.675.354-1.329.52-1.931l27.527-115.098c.838-3.496 1.661-6.94 2.454-10.258.005-.024.002-.047.008-.069.051-.246.078-.499.078-.761z" fill="url(#b)"/><path opacity=".3" d="m672.435 385.355-.013-.303a128.445 128.445 0 0 0-.299-7.174 81.957 81.957 0 0 0-.192-2.803c-.106-1.187-.25-2.522-.417-3.89a158.29 158.29 0 0 0-.619-4.542c-.025-.157-.047-.314-.074-.469-.082-.528-.164-1.043-.245-1.527-.124-.725-.258-1.422-.389-2.123-.03-.16-.058-.322-.088-.48a128.515 128.515 0 0 0-1.698-7.608l-.02-.075a123.811 123.811 0 0 0-2.862-9.614 21.494 21.494 0 0 0-.083-.232c-.027-.076-.052-.16-.078-.235-.303-.878-.653-1.846-1.024-2.841-.188-.509-.391-1.039-.597-1.58l-.12-.313a137.378 137.378 0 0 0-1.097-2.747l-.135-.33c-.217-.524-.433-1.036-.639-1.512l-.195-.44a131.22 131.22 0 0 0-3.078-6.543 141.07 141.07 0 0 0-.923-1.811c-.028-.053-.051-.103-.08-.156-.056-.107-.119-.221-.176-.331l-.176-.333-.152-.283-.11-.203c-.153-.282-.309-.571-.472-.866-.038-.069-.077-.137-.115-.208a188.42 188.42 0 0 0-.483-.87c-.054-.095-.109-.191-.162-.287-.148-.263-.298-.525-.449-.791l-.224-.388-.406-.703c-.088-.151-.177-.299-.263-.449l-.377-.638-.266-.444-.398-.658-.192-.314a47.578 47.578 0 0 0-.474-.765l-.025-.041-.026-.039c-.126-.2-.252-.404-.374-.593a92.295 92.295 0 0 0-1.547-2.331c-1.324-1.957-2.765-3.999-3.946-5.677a69.55 69.55 0 0 0-1.795-2.425c-2.513-3.338-5.871-7.129-8.599-9.92-.463-.473-.951-.961-1.457-1.458l-1.339-1.387c-1.86-1.923-4.284-4.076-6.639-6.082-.23-.198-.451-.407-.681-.604a114.151 114.151 0 0 0-3.222-2.658 189.476 189.476 0 0 0-7.773-5.672c-.603-.423-1.195-.834-1.748-1.211a60.676 60.676 0 0 0-2.27-1.457l-.106-.068c-.068-.042-.137-.082-.205-.125a183.42 183.42 0 0 0-1.334-.81c-.588-.357-1.173-.715-1.773-1.065l-.357-.214a90.795 90.795 0 0 0-5.505-3.017c-.057-.03-.116-.058-.174-.087-2.066-1.051-2.951-1.496-4.15-2.054-.972-.46-1.924-.891-2.843-1.295-.111-.049-.213-.096-.33-.149-.026-.011-1.074-.479-2.778-1.174a127.022 127.022 0 0 0-5.394-2.089c-.683-.243-1.291-.457-1.897-.666l-.013-.004a88.6 88.6 0 0 0-1.27-.431c-.021-.007-.04-.015-.061-.021-.323-.107-.659-.217-1.017-.332-.561-.182-1.127-.361-1.701-.536-.621-.189-1.17-.354-1.673-.501l-.107-.033c-.054-.016-.11-.031-.164-.048a65.811 65.811 0 0 0-4.824-1.305l-.008-.002a73.626 73.626 0 0 0-1.63-.397l-.007-.001c-.735-.179-2.03-.478-3.807-.84-.455-.093-.94-.19-1.344-.269a82.4 82.4 0 0 0-2.382-.439c-.946-.166-1.899-.322-2.86-.463l-.597-.086c-.401-.057-.802-.112-1.203-.166l-.315-.042c-.329-.043-.658-.085-.987-.125l-.371-.045-.957-.112c-.254-.029-.526-.057-.795-.086l-.568-.062c-.382-.039-.779-.078-1.181-.116l-.259-.025c-.196-.018-.382-.038-.582-.054-.135-.012-.258-.02-.393-.032-.759-.065-1.503-.125-2.234-.178l-.61-.043a156.02 156.02 0 0 0-2.425-.146 117.375 117.375 0 0 0-5.042-.163c-.279-.002-.518-.002-.783-.002a130.406 130.406 0 0 0-2.789.01c-1.679.022-2.906.065-3.713.103-2.828.119-5.385.347-7.936.641-2.089.209-4.16.463-6.014.77-1.996.291-4.336.735-6.396 1.168-1.659.325-3.295.678-4.693 1.064-.468.131-.963.272-1.455.413-1.409.373-2.804.751-4.014 1.062-2.615.672-5.992 1.943-8.545 2.825-3.663 1.266-8.452 3.266-11.884 5.066l-.024.012c-.447.218-.88.431-1.292.635-2.809 1.395-6.533 3.323-9.159 5.04l-.015.009c-2.431 1.47-5.352 3.415-7.577 4.936-2.648 1.812-6.105 4.357-8.497 6.495-2.494 1.927-5.47 4.915-7.803 7.033-2.043 1.854-8.507 8.613-13.51 15.455-1.793 2.451-4.169 5.688-5.74 8.371-1.766 2.621-3.713 6.219-5.137 8.964a131.923 131.923 0 0 0-4.687 9.969c-1.338 2.929-2.693 6.898-3.677 9.904-.006.018-.011.039-.018.057a135.212 135.212 0 0 0-2.891 10.249l-29.981 125.354c-.005.022-.003.046-.007.068a3.534 3.534 0 0 0-.083.767c0 .043.004.087.006.132.009.264.042.533.107.811l.009.05c.071.286.178.58.308.88.024.058.048.115.074.173.136.296.3.597.494.905.035.056.076.114.111.17.206.313.434.633.697.961.011.012.019.025.029.037.272.334.583.678.916 1.025l.192.202c.334.341.698.687 1.09 1.042.074.067.154.136.231.203.422.371.865.747 1.351 1.134 20.589 16.351 91.707 39.382 158.845 51.441 1.473.264 2.926.519 4.371.77l.992.17a597.31 597.31 0 0 0 8.499 1.396l.865.136c1.32.205 2.625.404 3.915.594.314.048.625.092.937.138 1.182.173 2.354.342 3.512.504l.504.072c1.269.176 2.519.343 3.756.505l.942.123c1.232.16 2.455.312 3.655.459.132.017.26.03.392.045 1.112.135 2.206.26 3.29.382l.844.094a330.5 330.5 0 0 0 3.398.358c.231.023.457.044.684.068.993.098 1.972.191 2.938.279l.625.058c1.078.095 2.137.184 3.181.265.256.021.511.039.764.059a275.686 275.686 0 0 0 6.175.405c.239.013.476.026.714.036.964.049 1.917.093 2.846.129l.401.014a202.077 202.077 0 0 0 5.638.124l.533.001c.767.003 1.519 0 2.256-.009.114-.001.232-.001.345-.004.802-.012 1.582-.03 2.347-.056.177-.005.352-.013.527-.02a99.54 99.54 0 0 0 2.242-.103l.106-.006a87.95 87.95 0 0 0 2.033-.145l.448-.037a78.537 78.537 0 0 0 1.932-.192c.108-.013.212-.027.319-.039a61.125 61.125 0 0 0 1.617-.214c.107-.017.217-.03.322-.047.57-.087 1.115-.183 1.644-.283.117-.023.23-.045.344-.069.498-.098.981-.202 1.44-.313l.113-.026c.481-.119.933-.246 1.371-.378.099-.029.197-.06.295-.09a21.03 21.03 0 0 0 1.212-.42l.122-.05c.347-.136.671-.281.978-.43a10.577 10.577 0 0 0 1.103-.604c.053-.035.103-.072.157-.106.241-.162.465-.328.67-.499.034-.028.073-.056.106-.085a5.406 5.406 0 0 0 .688-.733c.162-.21.31-.424.422-.648l.004-.007a3.41 3.41 0 0 0 .252-.686c.009-.029.026-.056.032-.085l26.937-112.622 3.045-12.732a132.115 132.115 0 0 0 3.184-20.32c.026-.218.056-.453.081-.668.35-3.202.475-7.502.329-10.712z" fill="url(#c)"/></g><path d="M638.937 541.566c0-.046-.005-.091-.007-.137a4.293 4.293 0 0 0-.104-.801l-.012-.057a5.65 5.65 0 0 0-.303-.874c-.026-.06-.051-.122-.08-.183a8.218 8.218 0 0 0-.49-.898c-.036-.06-.079-.12-.118-.18a12.196 12.196 0 0 0-.684-.944l-.04-.051a16.527 16.527 0 0 0-.908-1.019 24.394 24.394 0 0 0-1.284-1.244c-.077-.071-.16-.141-.239-.212-.421-.37-.861-.744-1.346-1.129-20.588-16.351-91.706-39.382-158.845-51.441a755.043 755.043 0 0 0-4.388-.772l-.966-.166a594.576 594.576 0 0 0-8.537-1.403l-.822-.13a639.632 639.632 0 0 0-3.957-.601l-.865-.126a546.493 546.493 0 0 0-3.627-.52l-.411-.058a453.694 453.694 0 0 0-4.686-.627 476.314 476.314 0 0 0-3.711-.465l-.297-.035a525.01 525.01 0 0 0-3.408-.395l-.761-.085a429.326 429.326 0 0 0-4.075-.424 331.77 331.77 0 0 0-3.028-.288l-.558-.051a313.92 313.92 0 0 0-3.224-.27l-.711-.055c-1.03-.078-2.047-.153-3.044-.218l-.15-.011c-1.032-.066-2.04-.125-3.034-.179l-.669-.033c-.976-.05-1.936-.095-2.875-.13l-.367-.013a212.65 212.65 0 0 0-2.529-.076l-.537-.013c-.887-.019-1.756-.03-2.605-.035l-.515-.001c-.776-.002-1.539 0-2.284.009l-.322.002a133.26 133.26 0 0 0-5.123.179 94.457 94.457 0 0 0-2.138.152l-.446.037c-.664.057-1.31.121-1.933.192l-.318.039a58.14 58.14 0 0 0-1.617.215c-.109.016-.218.03-.326.047a45.805 45.805 0 0 0-1.988.352c-.494.099-.973.201-1.428.312-.04.009-.084.018-.124.029a25.55 25.55 0 0 0-1.664.468c-.424.134-.83.271-1.209.419-.044.017-.083.035-.128.052-.345.137-.667.28-.973.429-.071.034-.143.066-.212.102a11.18 11.18 0 0 0-.891.502c-.055.034-.104.071-.157.106a7.778 7.778 0 0 0-.67.499c-.034.029-.072.057-.106.085-.216.191-.407.39-.577.593-.038.046-.074.093-.11.14a4.192 4.192 0 0 0-.424.649c0 .002 0 .003-.002.004a3.614 3.614 0 0 0-.256.693c-.007.027-.023.053-.03.082L354.682 606.96c-.871 3.783-1.986 8.854-2.392 12.715-.092.866-.177 1.682-.26 2.476-.274 2.029-.494 3.998-.613 5.798-.031.489-.061 1-.089 1.525-.329 4.096-.428 7.417-.217 11.328.059 3.147.275 7.235.68 10.298.279 2.611.751 5.924 1.237 8.757l.051.3c.031.185.064.363.097.543.028.158.056.323.085.476l.043.23.027.146.042.214c.571 3.017 1.344 6.817 2.223 9.639.834 3.053 2.136 7.07 3.17 10.061.925 2.676 2.336 6.118 3.531 8.793l.001.005c1.163 2.901 3.111 6.596 4.602 9.341.104.191.207.37.311.561l.066.13c1.514 3 3.851 6.829 5.82 9.582a134.881 134.881 0 0 0 4.848 6.781c1.755 2.301 4.202 5.286 6.129 7.443.119.135.249.276.373.413.196.218.396.452.59.661.759.824 1.613 1.72 2.505 2.638a263.569 263.569 0 0 0 3.811 3.86c2.832 2.809 5.93 5.432 8.649 7.594a90.318 90.318 0 0 0 4.219 3.235c.914.678 1.688 1.238 2.25 1.645.348.252 2.192 1.571 4.945 3.332l.218.139c1.53.974 3.325 2.073 5.302 3.202a97.549 97.549 0 0 0 4.426 2.408c3.867 1.964 3.886 1.974 7.749 3.716.029.015.06.028.089.041.186.082 1.307.576 3.053 1.284.857.353 1.704.683 2.545 1.007.633.243 1.297.494 2 .753.174.063.356.137.529.198.223.08.485.172.765.27 1.63.58 3.387 1.171 5.195 1.721.771.236 2.165.659 4.012 1.164l.158.044c.283.077.574.154.876.235 1.838.49 3.83.976 5.94 1.429l.619.133c.161.033.322.067.484.099 1.076.224 2.19.441 3.347.645l.478.079c.465.083.974.166 1.534.255l.446.072c3.62.566 8.977 1.236 15.593 1.507 1.109.046 2.176.075 3.215.092l.376.008c.184.002.363.005.545.006 3.087.042 5.846-.022 8.116-.154 3.824-.193 6.369-.499 7.123-.598l.389-.051c2.668-.289 5.355-.649 7.613-1.088l.125-.025c2.263-.396 4.969-.9 7.035-1.431l1.094-.278c.65-.15 1.284-.301 1.872-.449 2.628-.663 6.102-1.669 8.663-2.553 2.972-1.028 6.957-2.37 9.806-3.704.226-.106.466-.217.705-.327a148.495 148.495 0 0 0 8.027-3.762c.059-.03.124-.065.185-.095.276-.141.558-.29.842-.438 2.623-1.369 5.778-3.068 8.072-4.608.035-.025.076-.049.111-.074a134.228 134.228 0 0 0 7.683-5.146c.132-.094.271-.191.399-.285.076-.055.157-.118.235-.174 4.525-3.301 7.369-5.798 7.55-5.957.026-.024.052-.046.078-.068l.303-.257a85.142 85.142 0 0 0 2.307-2.064c3.516-3.159 7.272-6.74 11.861-12.103 2.096-2.285 4.569-5.583 6.412-8.116a.383.383 0 0 0 .016-.021c.027-.035.056-.077.082-.112a71.825 71.825 0 0 0 1.567-2.254 132.515 132.515 0 0 0 4.098-6.236c1.769-2.654 3.723-6.446 5.169-9.286a82.043 82.043 0 0 0 1.829-3.87 123.724 123.724 0 0 0 2.361-5.313c1.058-2.562 2.267-5.904 3.223-8.759l.099-.27c.887-2.429 1.663-5.614 2.39-8.378.179-.675.354-1.329.52-1.931l27.527-115.098c.838-3.496 1.661-6.94 2.454-10.258.005-.024.002-.047.008-.069.051-.246.078-.499.078-.761z" fill="url(#d)"/><path d="m672.435 385.355-.013-.303a128.445 128.445 0 0 0-.299-7.174 81.957 81.957 0 0 0-.192-2.803c-.106-1.187-.25-2.522-.417-3.89a158.29 158.29 0 0 0-.619-4.542c-.025-.157-.047-.314-.074-.469-.082-.528-.164-1.043-.245-1.527-.124-.725-.258-1.422-.389-2.123-.03-.16-.058-.322-.088-.48a128.515 128.515 0 0 0-1.698-7.608l-.02-.075a123.811 123.811 0 0 0-2.862-9.614 21.494 21.494 0 0 0-.083-.232c-.027-.076-.052-.16-.078-.235-.303-.878-.653-1.846-1.024-2.841-.188-.509-.391-1.039-.597-1.58l-.12-.313a137.378 137.378 0 0 0-1.097-2.747l-.135-.33c-.217-.524-.433-1.036-.639-1.512l-.195-.44a131.22 131.22 0 0 0-3.078-6.543 141.07 141.07 0 0 0-.923-1.811c-.028-.053-.051-.103-.08-.156-.056-.107-.119-.221-.177-.331a25.35 25.35 0 0 0-.175-.333l-.152-.283-.11-.203c-.153-.282-.308-.571-.472-.866-.038-.069-.077-.137-.115-.208l-.483-.87c-.054-.095-.109-.191-.162-.287-.148-.263-.298-.526-.449-.791l-.224-.388-.406-.703c-.088-.151-.177-.299-.263-.449l-.377-.638-.266-.444-.398-.658-.192-.314a55.961 55.961 0 0 0-.474-.765l-.025-.041-.026-.039c-.126-.2-.252-.404-.374-.593a92.295 92.295 0 0 0-1.547-2.331c-1.324-1.957-2.765-3.999-3.946-5.677a69.55 69.55 0 0 0-1.795-2.425c-2.513-3.338-5.871-7.129-8.599-9.92-.463-.473-.951-.961-1.457-1.458l-1.339-1.387c-1.86-1.923-4.284-4.076-6.639-6.082-.23-.198-.451-.407-.681-.604a114.151 114.151 0 0 0-3.222-2.658 189.476 189.476 0 0 0-7.773-5.672c-.603-.423-1.195-.834-1.748-1.211a60.676 60.676 0 0 0-2.27-1.457l-.106-.068c-.068-.042-.137-.082-.205-.125a183.42 183.42 0 0 0-1.334-.81c-.588-.357-1.173-.715-1.773-1.065l-.357-.214a90.795 90.795 0 0 0-5.505-3.017c-.057-.03-.116-.058-.174-.087-2.066-1.051-2.951-1.496-4.15-2.054-.972-.46-1.924-.891-2.843-1.295-.111-.049-.213-.096-.33-.149-.026-.011-1.074-.479-2.778-1.174a127.022 127.022 0 0 0-5.394-2.089c-.683-.243-1.291-.457-1.897-.666l-.013-.004a88.6 88.6 0 0 0-1.27-.431c-.021-.007-.04-.015-.061-.021-.323-.107-.659-.217-1.017-.332-.561-.182-1.127-.361-1.701-.536-.621-.189-1.17-.354-1.673-.501l-.107-.033c-.054-.016-.11-.031-.164-.048a65.811 65.811 0 0 0-4.824-1.305l-.008-.002a73.626 73.626 0 0 0-1.63-.397l-.007-.001c-.735-.179-2.03-.478-3.807-.84-.455-.093-.94-.19-1.344-.269a82.4 82.4 0 0 0-2.382-.439c-.946-.166-1.899-.322-2.86-.463l-.597-.086c-.401-.057-.802-.112-1.203-.166l-.315-.042c-.329-.043-.658-.085-.987-.125l-.371-.045-.957-.112c-.254-.029-.526-.057-.795-.086l-.568-.062c-.382-.039-.779-.078-1.181-.116l-.259-.025c-.196-.018-.382-.038-.582-.054-.135-.012-.258-.02-.393-.032-.759-.065-1.503-.125-2.234-.178l-.61-.043a156.02 156.02 0 0 0-2.425-.146 117.375 117.375 0 0 0-5.042-.163c-.279-.002-.518-.002-.783-.002a130.406 130.406 0 0 0-2.789.01c-1.679.022-2.906.065-3.713.103-2.828.119-5.385.347-7.936.641-2.089.209-4.16.463-6.014.77-1.996.291-4.336.735-6.396 1.168-1.659.325-3.296.678-4.693 1.064-.468.131-.963.272-1.455.413-1.409.373-2.804.751-4.014 1.062-2.615.672-5.992 1.943-8.545 2.825-3.663 1.266-8.452 3.266-11.884 5.066l-.024.012c-.447.218-.88.431-1.292.635-2.809 1.395-6.533 3.323-9.159 5.04l-.015.009c-2.431 1.47-5.352 3.415-7.577 4.936-2.648 1.812-6.105 4.357-8.497 6.495-2.494 1.927-5.47 4.915-7.803 7.033-2.043 1.854-8.507 8.613-13.51 15.455-1.793 2.451-4.169 5.688-5.74 8.371-1.766 2.621-3.713 6.219-5.137 8.964a131.923 131.923 0 0 0-4.687 9.969c-1.338 2.929-2.693 6.898-3.677 9.904-.006.018-.011.039-.018.057a135.212 135.212 0 0 0-2.891 10.249l-29.981 125.354c-.005.022-.003.046-.007.068a3.534 3.534 0 0 0-.083.767c0 .043.004.087.006.132.009.264.042.533.107.811l.009.05c.071.286.178.58.308.88.024.058.048.115.074.173.136.296.3.597.494.905.035.056.076.114.111.17.206.313.434.633.697.961.011.012.019.025.029.037.272.334.583.678.916 1.025l.192.202c.334.341.698.687 1.09 1.042.074.067.154.136.231.203.422.371.865.747 1.351 1.134 20.589 16.351 91.707 39.382 158.845 51.441 1.473.264 2.926.519 4.371.77l.992.17a597.31 597.31 0 0 0 8.499 1.396l.865.136c1.32.205 2.625.404 3.915.594.314.048.625.092.937.138 1.182.173 2.354.342 3.512.504l.504.072c1.269.176 2.519.343 3.756.505l.942.123c1.232.16 2.455.312 3.655.459.132.017.26.03.392.045 1.112.135 2.206.26 3.29.382l.844.094a330.5 330.5 0 0 0 3.398.358c.231.023.457.044.684.068.993.098 1.972.191 2.938.279l.625.058c1.078.095 2.137.184 3.181.265.256.021.511.039.764.059a275.686 275.686 0 0 0 6.175.405c.239.013.476.026.714.036.964.049 1.917.093 2.846.129l.401.014a202.077 202.077 0 0 0 5.638.124l.533.001c.767.003 1.519 0 2.256-.009.114-.001.232-.001.345-.004.802-.012 1.582-.03 2.347-.056.177-.005.352-.013.527-.02a99.54 99.54 0 0 0 2.242-.103l.106-.006a87.95 87.95 0 0 0 2.033-.145l.448-.037a78.537 78.537 0 0 0 1.932-.192c.108-.013.212-.027.319-.039a61.125 61.125 0 0 0 1.617-.214c.107-.017.217-.03.322-.047.57-.087 1.115-.183 1.644-.283.117-.023.23-.045.344-.069.498-.098.981-.202 1.44-.313l.113-.026c.481-.119.933-.246 1.371-.378.099-.029.197-.06.295-.09a21.03 21.03 0 0 0 1.212-.42l.122-.05c.347-.136.671-.281.978-.43a10.577 10.577 0 0 0 1.103-.604c.053-.035.103-.072.157-.106.241-.162.465-.328.67-.499.034-.028.073-.056.106-.085a5.406 5.406 0 0 0 .688-.733c.162-.21.31-.424.422-.648l.004-.007a3.41 3.41 0 0 0 .252-.686c.009-.029.026-.056.032-.085l26.937-112.622 3.045-12.732a132.115 132.115 0 0 0 3.184-20.32c.026-.218.056-.453.081-.668.35-3.202.475-7.502.329-10.712z" fill="url(#e)"/><defs><linearGradient id="b" x1="592.248" y1="492.469" x2="372.198" y2="712.52" gradientUnits="userSpaceOnUse"><stop offset=".325" stop-color="#4664FA"/><stop offset="1" stop-color="#6E82FA"/></linearGradient><linearGradient id="c" x1="431.257" y1="531.523" x2="651.326" y2="311.454" gradientUnits="userSpaceOnUse"><stop offset=".325" stop-color="#FA4664"/><stop offset="1" stop-color="#FA6E82"/></linearGradient><linearGradient id="d" x1="598.78" y1="499.001" x2="378.73" y2="719.052" gradientUnits="userSpaceOnUse"><stop offset=".325" stop-color="#3C3CFF"/><stop offset="1" stop-color="#6464FF"/></linearGradient><linearGradient id="e" x1="437.79" y1="538.055" x2="657.858" y2="317.986" gradientUnits="userSpaceOnUse"><stop offset=".325" stop-color="#FF3C3C"/><stop offset="1" stop-color="#FF6464"/></linearGradient><filter id="a" x="287" y="192" width="449.495" height="640" filterUnits="userSpaceOnUse" color-interpolation-filters="sRGB"><feFlood flood-opacity="0" result="BackgroundImageFix"/><feBlend in="SourceGraphic" in2="BackgroundImageFix" result="shape"/><feGaussianBlur stdDeviation="32" result="effect1_foregroundBlur"/></filter></defs></svg>