<?xml version="1.0" encoding="UTF-8" standalone="no"?>
<svg
   xmlns:dc="http://purl.org/dc/elements/1.1/"
   xmlns:cc="http://creativecommons.org/ns#"
   xmlns:rdf="http://www.w3.org/1999/02/22-rdf-syntax-ns#"
   xmlns:svg="http://www.w3.org/2000/svg"
   xmlns="http://www.w3.org/2000/svg"
   xmlns:sodipodi="http://sodipodi.sourceforge.net/DTD/sodipodi-0.dtd"
   xmlns:inkscape="http://www.inkscape.org/namespaces/inkscape"
   inkscape:version="1.0 (4035a4fb49, 2020-05-01)"
   sodipodi:docname="logo_800px_alpha.svg"
   id="svg37"
   xml:space="preserve"
   enable-background="new 0 0 800 800"
   viewBox="0 0 800 800"
   height="800"
   width="800"
   y="0px"
   x="0px"
   version="1.1"><metadata
   id="metadata43"><rdf:RDF><cc:Work
       rdf:about=""><dc:format>image/svg+xml</dc:format><dc:type
         rdf:resource="http://purl.org/dc/dcmitype/StillImage" /><dc:title></dc:title></cc:Work></rdf:RDF></metadata><defs
   id="defs41" /><sodipodi:namedview
   inkscape:current-layer="svg37"
   inkscape:window-maximized="1"
   inkscape:window-y="-8"
   inkscape:window-x="-8"
   inkscape:cy="670.09593"
   inkscape:cx="1168.5508"
   inkscape:zoom="0.153125"
   showguides="false"
   showgrid="false"
   id="namedview39"
   inkscape:window-height="700"
   inkscape:window-width="1024"
   inkscape:pageshadow="2"
   inkscape:pageopacity="0"
   guidetolerance="10"
   gridtolerance="10"
   objecttolerance="10"
   borderopacity="1"
   bordercolor="#666666"
   pagecolor="#ffffff"
   inkscape:document-rotation="0" />
	<filter
   id="blur_10">
		<feGaussianBlur
   id="feGaussianBlur2"
   stdDeviation="10" />
	</filter>
	<linearGradient
   y2="558.49042"
   x2="298.18149"
   y1="390.0527"
   x1="466.61911"
   gradientUnits="userSpaceOnUse"
   id="gradient_blue_light">
		<stop
   id="stop5"
   style="stop-color:#4664FA"
   offset="0.325" />
		<stop
   id="stop7"
   style="stop-color:#6E82FA"
   offset="1" />
	</linearGradient>
	<linearGradient
   y2="251.49471"
   x2="511.84021"
   y1="419.94629"
   x1="343.3887"
   gradientUnits="userSpaceOnUse"
   id="gradient_red_light">
		<stop
   id="stop10"
   style="stop-color:#FA4664"
   offset="0.3245" />
		<stop
   id="stop12"
   style="stop-color:#FA6E82"
   offset="1" />
	</linearGradient>
	<linearGradient
   y2="558.49042"
   x2="298.18149"
   y1="390.0527"
   x1="466.61911"
   gradientUnits="userSpaceOnUse"
   id="gradient_blue">
		<stop
   id="stop15"
   style="stop-color:#3C3CFF"
   offset="0.325" />
		<stop
   id="stop17"
   style="stop-color:#6464FF"
   offset="1" />
	</linearGradient>
	<linearGradient
   y2="251.49471"
   x2="511.84021"
   y1="419.94629"
   x1="343.3887"
   gradientUnits="userSpaceOnUse"
   id="gradient_red">
		<stop
   id="stop20"
   style="stop-color:#FF3C3C"
   offset="0.3245" />
		<stop
   id="stop22"
   style="stop-color:#FF6464"
   offset="1" />
	</linearGradient>


	<g
   transform="translate(-4.9998155,-5.0025541)"
   id="g29"
   filter="url(#blur_10)"
   opacity="0.3">
		<path
   style="fill:url(#gradient_blue_light)"
   id="path25"
   d="m 502.357,427.634 c 0,-0.035 -0.004,-0.07 -0.005,-0.105 -0.008,-0.2 -0.032,-0.403 -0.08,-0.613 -0.004,-0.015 -0.005,-0.029 -0.009,-0.044 -0.053,-0.218 -0.135,-0.441 -0.232,-0.669 -0.02,-0.046 -0.039,-0.093 -0.061,-0.14 -0.104,-0.224 -0.229,-0.452 -0.375,-0.687 -0.028,-0.046 -0.061,-0.092 -0.091,-0.138 -0.154,-0.236 -0.326,-0.476 -0.523,-0.723 -0.011,-0.013 -0.02,-0.026 -0.031,-0.039 -0.206,-0.254 -0.442,-0.516 -0.695,-0.78 -0.051,-0.054 -0.101,-0.106 -0.153,-0.16 -0.255,-0.259 -0.531,-0.523 -0.83,-0.792 -0.059,-0.054 -0.122,-0.108 -0.183,-0.162 -0.322,-0.283 -0.659,-0.57 -1.03,-0.864 -15.759,-12.516 -70.196,-30.145 -121.588,-39.376 -1.132,-0.203 -2.249,-0.399 -3.359,-0.591 -0.247,-0.043 -0.493,-0.085 -0.739,-0.127 -1.081,-0.186 -2.152,-0.366 -3.211,-0.54 -0.163,-0.026 -0.322,-0.052 -0.484,-0.079 -0.956,-0.156 -1.902,-0.308 -2.84,-0.455 -0.21,-0.033 -0.421,-0.066 -0.629,-0.099 -1.021,-0.159 -2.031,-0.312 -3.029,-0.46 -0.222,-0.033 -0.441,-0.064 -0.662,-0.097 -0.935,-0.137 -1.861,-0.27 -2.776,-0.398 -0.104,-0.015 -0.211,-0.03 -0.315,-0.044 -0.985,-0.137 -1.955,-0.267 -2.917,-0.393 -0.224,-0.029 -0.448,-0.058 -0.67,-0.087 -0.958,-0.124 -1.907,-0.243 -2.84,-0.356 -0.077,-0.009 -0.151,-0.018 -0.228,-0.027 -0.881,-0.105 -1.75,-0.206 -2.608,-0.302 -0.195,-0.022 -0.39,-0.044 -0.583,-0.065 -0.894,-0.098 -1.776,-0.191 -2.644,-0.279 -0.16,-0.016 -0.316,-0.031 -0.475,-0.046 -0.783,-0.078 -1.556,-0.151 -2.318,-0.22 -0.142,-0.013 -0.286,-0.027 -0.427,-0.039 -0.836,-0.075 -1.658,-0.143 -2.468,-0.207 -0.182,-0.014 -0.363,-0.028 -0.544,-0.042 -0.788,-0.06 -1.567,-0.117 -2.33,-0.167 -0.038,-0.002 -0.077,-0.006 -0.115,-0.008 -0.79,-0.051 -1.561,-0.096 -2.322,-0.137 -0.171,-0.009 -0.342,-0.018 -0.512,-0.026 -0.747,-0.038 -1.482,-0.072 -2.201,-0.099 -0.095,-0.004 -0.187,-0.006 -0.281,-0.01 -0.658,-0.024 -1.302,-0.043 -1.936,-0.058 -0.137,-0.003 -0.275,-0.007 -0.411,-0.01 -0.679,-0.015 -1.344,-0.023 -1.994,-0.027 -0.133,-10e-4 -0.262,-10e-4 -0.394,-10e-4 -0.594,-10e-4 -1.178,0 -1.748,0.007 -0.082,10e-4 -0.166,10e-4 -0.247,0.002 -0.617,0.009 -1.217,0.024 -1.805,0.043 -0.133,0.004 -0.265,0.009 -0.396,0.014 -0.587,0.022 -1.164,0.047 -1.72,0.08 -0.027,10e-4 -0.053,0.003 -0.08,0.005 -0.535,0.032 -1.051,0.07 -1.557,0.111 -0.114,0.009 -0.229,0.019 -0.341,0.028 -0.508,0.044 -1.003,0.093 -1.48,0.147 -0.083,0.01 -0.161,0.02 -0.243,0.03 -0.425,0.051 -0.838,0.106 -1.238,0.165 -0.083,0.012 -0.167,0.023 -0.249,0.036 -0.435,0.067 -0.853,0.139 -1.255,0.216 -0.09,0.017 -0.178,0.035 -0.267,0.053 -0.378,0.076 -0.745,0.154 -1.093,0.239 -0.031,0.007 -0.064,0.014 -0.095,0.022 -0.367,0.09 -0.712,0.187 -1.045,0.288 -0.077,0.023 -0.153,0.047 -0.229,0.07 -0.324,0.103 -0.635,0.208 -0.925,0.321 -0.034,0.013 -0.064,0.027 -0.098,0.04 -0.264,0.105 -0.511,0.214 -0.745,0.328 -0.054,0.026 -0.109,0.051 -0.162,0.078 -0.244,0.124 -0.472,0.252 -0.682,0.385 -0.042,0.026 -0.08,0.054 -0.12,0.081 -0.186,0.124 -0.357,0.251 -0.513,0.382 -0.026,0.022 -0.055,0.043 -0.081,0.065 -0.166,0.146 -0.312,0.298 -0.442,0.454 -0.029,0.035 -0.057,0.071 -0.084,0.107 -0.125,0.162 -0.238,0.326 -0.325,0.497 0,0.001 0,0.002 -0.001,0.003 -0.087,0.171 -0.147,0.349 -0.196,0.53 -0.006,0.021 -0.018,0.041 -0.023,0.063 -7.65,31.986 -15.3,63.967 -22.95,95.954 -0.667,2.895 -1.52,6.777 -1.831,9.732 -0.07,0.663 -0.135,1.288 -0.199,1.896 -0.21,1.553 -0.378,3.06 -0.469,4.438 -0.024,0.374 -0.047,0.765 -0.068,1.167 -0.252,3.135 -0.328,5.677 -0.166,8.671 0.045,2.409 0.21,5.538 0.52,7.883 0.214,1.998 0.575,4.534 0.947,6.703 0.013,0.077 0.026,0.153 0.039,0.229 0.024,0.142 0.049,0.278 0.074,0.416 0.022,0.121 0.043,0.247 0.065,0.364 0.011,0.057 0.022,0.119 0.033,0.176 0.007,0.037 0.014,0.076 0.021,0.112 0.01,0.053 0.021,0.11 0.032,0.164 0.437,2.309 1.029,5.218 1.702,7.378 0.638,2.337 1.635,5.412 2.426,7.701 0.708,2.049 1.788,4.683 2.703,6.731 0,10e-4 10e-4,0.003 10e-4,0.004 0.89,2.22 2.381,5.049 3.522,7.15 0.08,0.146 0.159,0.283 0.238,0.429 0.017,0.032 0.035,0.067 0.051,0.1 1.159,2.296 2.948,5.227 4.455,7.334 1.236,1.849 2.472,3.565 3.711,5.191 1.343,1.761 3.216,4.046 4.691,5.697 0.091,0.103 0.191,0.211 0.286,0.316 0.15,0.167 0.303,0.346 0.451,0.506 0.581,0.631 1.235,1.317 1.918,2.019 1.008,1.044 2.034,2.079 2.917,2.955 2.168,2.15 4.539,4.158 6.62,5.813 0.15,0.123 0.302,0.246 0.445,0.361 0.827,0.668 1.788,1.392 2.785,2.115 0.699,0.519 1.292,0.948 1.722,1.259 0.266,0.193 1.678,1.203 3.785,2.551 0.056,0.036 0.11,0.07 0.167,0.106 1.171,0.746 2.545,1.587 4.058,2.451 1.082,0.628 2.363,1.322 3.388,1.843 2.96,1.504 2.975,1.511 5.932,2.845 0.022,0.011 0.046,0.021 0.068,0.031 0.142,0.063 1,0.441 2.337,0.983 0.656,0.27 1.304,0.523 1.948,0.771 0.484,0.186 0.993,0.378 1.531,0.576 0.133,0.048 0.272,0.105 0.405,0.152 0.17,0.061 0.371,0.131 0.585,0.206 1.248,0.444 2.593,0.897 3.977,1.318 0.59,0.18 1.657,0.504 3.071,0.891 0.04,0.011 0.081,0.022 0.121,0.033 0.216,0.059 0.439,0.118 0.67,0.18 1.407,0.375 2.932,0.747 4.547,1.094 0.157,0.034 0.314,0.068 0.474,0.102 0.123,0.025 0.246,0.051 0.37,0.076 0.824,0.171 1.677,0.337 2.562,0.493 0.122,0.021 0.244,0.04 0.366,0.061 0.356,0.063 0.746,0.127 1.174,0.195 0.114,0.019 0.228,0.037 0.342,0.055 2.771,0.433 6.871,0.946 11.935,1.154 0.849,0.035 1.666,0.057 2.461,0.07 0.096,0.002 0.193,0.004 0.288,0.006 0.141,0.002 0.278,0.004 0.417,0.005 2.363,0.032 4.475,-0.017 6.213,-0.118 2.927,-0.148 4.875,-0.382 5.452,-0.458 0.093,-0.012 0.202,-0.026 0.298,-0.039 2.042,-0.221 4.099,-0.497 5.827,-0.833 0.031,-0.006 0.065,-0.013 0.096,-0.019 1.732,-0.303 3.803,-0.689 5.385,-1.095 0.268,-0.068 0.549,-0.14 0.837,-0.213 0.498,-0.115 0.983,-0.23 1.433,-0.344 2.012,-0.507 4.671,-1.277 6.631,-1.954 2.275,-0.787 5.325,-1.814 7.506,-2.835 0.173,-0.081 0.357,-0.166 0.54,-0.25 1.651,-0.721 3.368,-1.497 5.244,-2.429 0.312,-0.152 0.615,-0.304 0.9,-0.451 0.045,-0.023 0.095,-0.05 0.142,-0.073 0.211,-0.108 0.427,-0.222 0.644,-0.335 2.008,-1.048 4.423,-2.348 6.179,-3.527 0.027,-0.019 0.058,-0.038 0.085,-0.057 2.192,-1.359 4.178,-2.712 5.881,-3.939 0.101,-0.072 0.207,-0.146 0.305,-0.218 0.058,-0.042 0.12,-0.09 0.18,-0.133 3.464,-2.527 5.641,-4.438 5.779,-4.56 0.02,-0.018 0.04,-0.035 0.06,-0.052 0.076,-0.065 0.158,-0.134 0.232,-0.197 0.57,-0.488 1.164,-1.025 1.766,-1.58 2.691,-2.418 5.566,-5.159 9.079,-9.264 1.604,-1.749 3.497,-4.273 4.908,-6.212 0.004,-0.005 0.008,-0.011 0.012,-0.016 0.021,-0.027 0.043,-0.059 0.063,-0.086 0.383,-0.526 0.788,-1.113 1.199,-1.725 1.079,-1.556 2.132,-3.135 3.137,-4.774 1.354,-2.031 2.85,-4.934 3.957,-7.108 0.465,-0.913 0.935,-1.917 1.4,-2.962 0.665,-1.415 1.283,-2.797 1.807,-4.067 0.81,-1.961 1.735,-4.519 2.467,-6.704 0.024,-0.067 0.052,-0.141 0.076,-0.207 0.679,-1.859 1.273,-4.297 1.829,-6.413 0.137,-0.517 0.271,-1.017 0.398,-1.478 l 21.071,-88.102 c 0.641,-2.676 1.271,-5.312 1.878,-7.852 0.004,-0.018 0.002,-0.036 0.006,-0.053 0.039,-0.188 0.06,-0.382 0.06,-0.582 z"
   fill="url(#gradient_blue_light)" />
		<path
   style="fill:url(#gradient_red_light)"
   id="path27"
   d="m 527.998,308.062 c -0.004,-0.075 -0.007,-0.156 -0.01,-0.232 -0.022,-1.879 -0.108,-3.702 -0.229,-5.491 -0.04,-0.754 -0.088,-1.483 -0.147,-2.146 -0.081,-0.908 -0.191,-1.93 -0.319,-2.977 -0.035,-0.298 -0.073,-0.592 -0.111,-0.887 -0.113,-0.881 -0.237,-1.757 -0.363,-2.59 -0.019,-0.12 -0.036,-0.24 -0.056,-0.359 -0.063,-0.404 -0.126,-0.798 -0.188,-1.169 -0.095,-0.555 -0.197,-1.088 -0.298,-1.625 -0.023,-0.122 -0.044,-0.246 -0.067,-0.367 -0.402,-2.1 -0.846,-4.044 -1.3,-5.824 -0.005,-0.019 -0.01,-0.038 -0.015,-0.057 -0.764,-2.989 -1.549,-5.5 -2.191,-7.359 -0.02,-0.057 -0.043,-0.121 -0.063,-0.178 -0.021,-0.058 -0.04,-0.122 -0.06,-0.18 -0.232,-0.672 -0.5,-1.413 -0.784,-2.174 -0.144,-0.39 -0.299,-0.796 -0.457,-1.21 -0.031,-0.08 -0.061,-0.159 -0.092,-0.239 -0.108,-0.281 -0.219,-0.563 -0.334,-0.854 -0.169,-0.426 -0.338,-0.842 -0.505,-1.249 -0.035,-0.084 -0.069,-0.167 -0.104,-0.253 -0.166,-0.401 -0.331,-0.793 -0.489,-1.157 -0.048,-0.108 -0.1,-0.226 -0.149,-0.337 -0.678,-1.556 -1.461,-3.23 -2.356,-5.008 -0.24,-0.479 -0.477,-0.943 -0.707,-1.386 -0.021,-0.041 -0.039,-0.079 -0.061,-0.12 -0.043,-0.082 -0.091,-0.169 -0.135,-0.253 -0.044,-0.084 -0.091,-0.174 -0.134,-0.255 -0.037,-0.07 -0.079,-0.146 -0.117,-0.217 -0.027,-0.051 -0.056,-0.103 -0.084,-0.155 -0.117,-0.216 -0.236,-0.437 -0.361,-0.663 -0.029,-0.053 -0.059,-0.105 -0.088,-0.159 -0.121,-0.219 -0.244,-0.44 -0.37,-0.666 -0.041,-0.073 -0.083,-0.146 -0.124,-0.22 -0.113,-0.201 -0.228,-0.402 -0.344,-0.605 -0.057,-0.099 -0.113,-0.198 -0.171,-0.297 -0.104,-0.18 -0.206,-0.358 -0.311,-0.538 -0.067,-0.116 -0.135,-0.229 -0.201,-0.344 -0.097,-0.164 -0.192,-0.326 -0.289,-0.488 -0.068,-0.115 -0.136,-0.228 -0.203,-0.34 -0.103,-0.17 -0.204,-0.338 -0.305,-0.504 -0.05,-0.082 -0.099,-0.161 -0.147,-0.24 -0.122,-0.201 -0.243,-0.396 -0.363,-0.586 -0.006,-0.01 -0.013,-0.021 -0.019,-0.031 -0.007,-0.01 -0.014,-0.021 -0.02,-0.03 -0.096,-0.153 -0.193,-0.309 -0.286,-0.454 -0.358,-0.561 -0.761,-1.164 -1.184,-1.784 -1.014,-1.498 -2.117,-3.061 -3.021,-4.346 -0.441,-0.627 -0.903,-1.245 -1.374,-1.856 -1.923,-2.555 -4.494,-5.457 -6.582,-7.593 -0.354,-0.362 -0.728,-0.736 -1.115,-1.116 -0.348,-0.361 -0.693,-0.718 -1.025,-1.062 -1.424,-1.472 -3.279,-3.12 -5.082,-4.655 -0.176,-0.152 -0.345,-0.312 -0.521,-0.463 -0.809,-0.692 -1.631,-1.371 -2.466,-2.034 -1.731,-1.335 -3.878,-2.912 -5.95,-4.342 -0.462,-0.324 -0.915,-0.638 -1.338,-0.927 -0.518,-0.354 -1.121,-0.733 -1.738,-1.115 -0.026,-0.017 -0.055,-0.036 -0.081,-0.052 -0.052,-0.032 -0.105,-0.063 -0.157,-0.096 -0.343,-0.21 -0.68,-0.415 -1.021,-0.62 -0.45,-0.273 -0.898,-0.547 -1.357,-0.815 -0.089,-0.053 -0.188,-0.113 -0.273,-0.164 -1.17,-0.705 -2.77,-1.576 -3.987,-2.194 -0.08,-0.041 -0.15,-0.076 -0.227,-0.115 -0.044,-0.023 -0.089,-0.045 -0.133,-0.067 -1.582,-0.804 -2.259,-1.145 -3.177,-1.572 -0.744,-0.352 -1.473,-0.682 -2.176,-0.991 -0.085,-0.038 -0.163,-0.074 -0.253,-0.114 -0.02,-0.009 -0.822,-0.367 -2.126,-0.899 -2.228,-0.917 -3.847,-1.499 -4.129,-1.599 -0.523,-0.186 -0.988,-0.35 -1.452,-0.51 -0.003,-0.001 -0.007,-0.002 -0.01,-0.003 -0.317,-0.11 -0.637,-0.219 -0.972,-0.33 -0.016,-0.005 -0.031,-0.011 -0.047,-0.016 -0.247,-0.082 -0.504,-0.166 -0.778,-0.254 -0.43,-0.139 -0.863,-0.276 -1.302,-0.41 -0.476,-0.145 -0.896,-0.271 -1.281,-0.384 -0.029,-0.009 -0.053,-0.016 -0.082,-0.025 -0.041,-0.012 -0.084,-0.024 -0.125,-0.037 -0.022,-0.007 -0.046,-0.014 -0.068,-0.02 -0.834,-0.245 -1.73,-0.489 -2.527,-0.697 -0.425,-0.113 -0.77,-0.202 -1.098,-0.282 -0.002,0 -0.004,-0.001 -0.006,-0.001 -0.716,-0.18 -1.208,-0.297 -1.248,-0.304 -0.001,0 -0.003,-0.001 -0.005,-0.001 -0.563,-0.137 -1.554,-0.366 -2.914,-0.643 -0.348,-0.071 -0.72,-0.145 -1.029,-0.206 -0.457,-0.09 -0.937,-0.184 -1.823,-0.336 -0.724,-0.127 -1.454,-0.246 -2.189,-0.354 -0.134,-0.02 -0.291,-0.042 -0.457,-0.066 -0.307,-0.044 -0.614,-0.086 -0.921,-0.127 -0.08,-0.011 -0.157,-0.021 -0.241,-0.032 -0.252,-0.033 -0.504,-0.065 -0.756,-0.096 -0.092,-0.011 -0.188,-0.022 -0.284,-0.034 -0.244,-0.029 -0.488,-0.058 -0.732,-0.086 -0.195,-0.022 -0.403,-0.044 -0.609,-0.066 -0.145,-0.016 -0.29,-0.032 -0.435,-0.047 -0.292,-0.03 -0.596,-0.06 -0.904,-0.089 -0.066,-0.006 -0.133,-0.013 -0.198,-0.019 -0.15,-0.014 -0.292,-0.029 -0.445,-0.042 -0.104,-0.009 -0.198,-0.015 -0.301,-0.024 -0.581,-0.05 -1.151,-0.096 -1.71,-0.136 -0.156,-0.011 -0.313,-0.022 -0.467,-0.033 -0.64,-0.044 -1.259,-0.081 -1.856,-0.112 v 0 c -1.45,-0.075 -2.766,-0.116 -3.86,-0.125 -0.213,-10e-4 -0.396,-10e-4 -0.599,-10e-4 -0.795,-0.005 -1.513,-0.003 -2.135,0.007 -1.285,0.017 -2.224,0.05 -2.842,0.079 -2.165,0.091 -4.122,0.266 -6.075,0.491 -1.599,0.16 -3.184,0.354 -4.603,0.589 -1.528,0.223 -3.319,0.563 -4.896,0.894 -1.27,0.249 -2.522,0.519 -3.592,0.815 -0.358,0.1 -0.737,0.208 -1.114,0.316 -1.078,0.285 -2.146,0.575 -3.072,0.813 -2.002,0.514 -4.587,1.487 -6.541,2.162 -2.804,0.969 -6.47,2.5 -9.097,3.878 -0.006,0.003 -0.012,0.006 -0.018,0.009 -0.342,0.167 -0.674,0.33 -0.989,0.486 -2.15,1.068 -5.001,2.544 -7.011,3.858 -0.004,0.002 -0.008,0.005 -0.011,0.007 -1.861,1.125 -4.097,2.614 -5.8,3.778 -2.027,1.387 -4.673,3.335 -6.504,4.972 -1.909,1.475 -4.187,3.762 -5.973,5.383 -1.564,1.419 -6.512,6.593 -10.341,11.83 -1.373,1.876 -3.191,4.354 -4.394,6.408 -1.352,2.006 -2.842,4.76 -3.932,6.861 -0.995,1.917 -2.259,4.46 -3.588,7.631 -1.024,2.242 -2.061,5.28 -2.814,7.581 -0.005,0.014 -0.009,0.03 -0.014,0.044 -0.779,2.396 -1.532,5.008 -2.213,7.845 -7.65,31.986 -15.299,63.967 -22.949,95.952 -0.004,0.017 -0.002,0.035 -0.005,0.052 -0.042,0.19 -0.064,0.386 -0.064,0.587 0,0.033 0.003,0.067 0.005,0.101 0.007,0.202 0.032,0.408 0.082,0.621 0.003,0.013 0.004,0.025 0.007,0.038 0.054,0.219 0.136,0.444 0.235,0.674 0.019,0.044 0.037,0.088 0.057,0.132 0.104,0.227 0.23,0.457 0.378,0.693 0.027,0.043 0.058,0.087 0.085,0.13 0.158,0.24 0.332,0.485 0.534,0.736 0.008,0.009 0.014,0.019 0.022,0.028 0.208,0.256 0.446,0.519 0.701,0.785 0.049,0.052 0.097,0.103 0.147,0.154 0.256,0.261 0.534,0.526 0.834,0.798 0.057,0.051 0.118,0.104 0.177,0.155 0.323,0.284 0.662,0.572 1.034,0.868 15.76,12.516 70.197,30.145 121.588,39.376 1.128,0.202 2.24,0.397 3.346,0.589 0.254,0.043 0.507,0.087 0.759,0.13 1.075,0.185 2.141,0.364 3.194,0.537 0.175,0.029 0.348,0.057 0.522,0.085 0.938,0.153 1.869,0.303 2.79,0.447 0.221,0.034 0.442,0.069 0.662,0.104 1.01,0.157 2.009,0.309 2.997,0.455 0.24,0.036 0.478,0.07 0.717,0.105 0.905,0.133 1.802,0.262 2.688,0.386 0.128,0.018 0.258,0.037 0.386,0.055 0.971,0.135 1.928,0.263 2.875,0.387 0.241,0.031 0.481,0.063 0.721,0.094 0.943,0.122 1.879,0.239 2.798,0.351 0.101,0.013 0.199,0.023 0.3,0.035 0.851,0.103 1.688,0.199 2.518,0.292 0.216,0.024 0.432,0.048 0.646,0.072 0.878,0.097 1.746,0.188 2.601,0.274 0.177,0.018 0.35,0.034 0.524,0.052 0.76,0.075 1.509,0.146 2.249,0.214 0.159,0.014 0.32,0.029 0.478,0.044 0.825,0.073 1.636,0.141 2.435,0.203 0.196,0.016 0.391,0.03 0.585,0.045 0.765,0.059 1.521,0.113 2.261,0.162 0.058,0.004 0.116,0.009 0.173,0.013 0.779,0.051 1.54,0.094 2.292,0.135 0.183,0.01 0.365,0.02 0.547,0.028 0.738,0.037 1.467,0.071 2.178,0.098 0.104,0.004 0.204,0.007 0.307,0.011 0.644,0.023 1.275,0.042 1.896,0.057 0.147,0.004 0.296,0.008 0.442,0.011 0.673,0.015 1.332,0.023 1.978,0.027 0.138,10e-4 0.271,10e-4 0.408,10e-4 0.587,0.002 1.163,0 1.727,-0.007 0.087,-10e-4 0.177,-10e-4 0.264,-0.003 0.614,-0.009 1.211,-0.023 1.796,-0.043 0.136,-0.004 0.27,-0.01 0.404,-0.015 0.586,-0.021 1.161,-0.047 1.716,-0.079 0.028,-0.002 0.054,-0.004 0.081,-0.005 0.535,-0.032 1.051,-0.069 1.556,-0.111 0.114,-0.009 0.229,-0.019 0.343,-0.028 0.508,-0.045 1.002,-0.093 1.479,-0.147 0.083,-0.01 0.162,-0.021 0.244,-0.03 0.426,-0.051 0.839,-0.105 1.238,-0.164 0.082,-0.013 0.166,-0.023 0.246,-0.036 0.437,-0.066 0.854,-0.14 1.259,-0.216 0.089,-0.018 0.176,-0.035 0.263,-0.053 0.381,-0.075 0.751,-0.155 1.102,-0.24 0.028,-0.007 0.059,-0.013 0.087,-0.02 0.368,-0.091 0.714,-0.188 1.049,-0.289 0.076,-0.022 0.151,-0.046 0.226,-0.069 0.325,-0.103 0.637,-0.209 0.928,-0.321 0.032,-0.013 0.061,-0.026 0.093,-0.039 0.266,-0.104 0.514,-0.215 0.749,-0.329 0.054,-0.025 0.109,-0.051 0.161,-0.077 0.245,-0.124 0.473,-0.252 0.683,-0.385 0.041,-0.027 0.079,-0.055 0.12,-0.081 0.185,-0.124 0.356,-0.251 0.513,-0.382 0.026,-0.022 0.056,-0.043 0.081,-0.065 0.166,-0.146 0.311,-0.298 0.441,-0.453 0.03,-0.036 0.058,-0.072 0.086,-0.108 0.124,-0.161 0.237,-0.325 0.323,-0.496 10e-4,-0.002 0.002,-0.004 0.003,-0.006 0.086,-0.169 0.146,-0.346 0.193,-0.525 0.007,-0.022 0.02,-0.043 0.024,-0.065 l 20.619,-86.206 c 0.799,-3.34 1.58,-6.608 2.331,-9.746 1.285,-5.4 2.048,-10.592 2.437,-15.554 0.02,-0.167 0.043,-0.347 0.062,-0.511 0.268,-2.451 0.364,-5.743 0.252,-8.2 z"
   fill="url(#gradient_red_light)" />
	</g>
	<g
   transform="translate(1.8264602e-4,-0.00254154)"
   id="g35">
		<path
   style="fill:url(#gradient_blue)"
   id="path31"
   d="m 497.357,422.634 c 0,-0.035 -0.004,-0.07 -0.005,-0.105 -0.008,-0.2 -0.032,-0.403 -0.08,-0.613 -0.004,-0.015 -0.005,-0.029 -0.009,-0.044 -0.053,-0.218 -0.135,-0.441 -0.232,-0.669 -0.02,-0.046 -0.039,-0.093 -0.061,-0.14 -0.104,-0.224 -0.229,-0.452 -0.375,-0.687 -0.028,-0.046 -0.061,-0.092 -0.091,-0.138 -0.154,-0.236 -0.326,-0.476 -0.523,-0.723 -0.011,-0.013 -0.02,-0.026 -0.031,-0.039 -0.206,-0.254 -0.442,-0.516 -0.695,-0.78 -0.051,-0.054 -0.101,-0.106 -0.153,-0.16 -0.255,-0.259 -0.531,-0.523 -0.83,-0.792 -0.059,-0.054 -0.122,-0.108 -0.183,-0.162 -0.322,-0.283 -0.659,-0.57 -1.03,-0.864 -15.759,-12.516 -70.196,-30.145 -121.588,-39.376 -1.132,-0.203 -2.249,-0.399 -3.359,-0.591 -0.247,-0.043 -0.493,-0.085 -0.739,-0.127 -1.081,-0.186 -2.152,-0.366 -3.211,-0.54 -0.163,-0.026 -0.322,-0.052 -0.484,-0.079 -0.956,-0.156 -1.902,-0.308 -2.84,-0.455 -0.21,-0.033 -0.421,-0.066 -0.629,-0.099 -1.021,-0.159 -2.031,-0.312 -3.029,-0.46 -0.222,-0.033 -0.441,-0.064 -0.662,-0.097 -0.935,-0.137 -1.861,-0.27 -2.776,-0.398 -0.104,-0.015 -0.211,-0.03 -0.315,-0.044 -0.985,-0.137 -1.955,-0.267 -2.917,-0.393 -0.224,-0.029 -0.448,-0.058 -0.67,-0.087 -0.958,-0.124 -1.907,-0.243 -2.84,-0.356 -0.077,-0.009 -0.151,-0.018 -0.228,-0.027 -0.881,-0.105 -1.75,-0.206 -2.608,-0.302 -0.195,-0.022 -0.39,-0.044 -0.583,-0.065 -0.894,-0.098 -1.776,-0.191 -2.644,-0.279 -0.16,-0.016 -0.316,-0.031 -0.475,-0.046 -0.783,-0.078 -1.556,-0.151 -2.318,-0.22 -0.142,-0.013 -0.286,-0.027 -0.427,-0.039 -0.836,-0.075 -1.658,-0.143 -2.468,-0.207 -0.182,-0.014 -0.363,-0.028 -0.544,-0.042 -0.788,-0.06 -1.567,-0.117 -2.33,-0.167 -0.038,-0.002 -0.077,-0.006 -0.115,-0.008 -0.79,-0.051 -1.561,-0.096 -2.322,-0.137 -0.171,-0.009 -0.342,-0.018 -0.512,-0.026 -0.747,-0.038 -1.482,-0.072 -2.201,-0.099 -0.095,-0.004 -0.187,-0.006 -0.281,-0.01 -0.658,-0.024 -1.302,-0.043 -1.936,-0.058 -0.137,-0.003 -0.275,-0.007 -0.411,-0.01 -0.679,-0.015 -1.344,-0.023 -1.994,-0.027 -0.133,-10e-4 -0.262,-10e-4 -0.394,-10e-4 -0.594,-10e-4 -1.178,0 -1.748,0.007 -0.082,10e-4 -0.166,10e-4 -0.247,0.002 -0.617,0.009 -1.217,0.024 -1.805,0.043 -0.133,0.004 -0.265,0.009 -0.396,0.014 -0.587,0.022 -1.164,0.047 -1.72,0.08 -0.027,10e-4 -0.053,0.003 -0.08,0.005 -0.535,0.032 -1.051,0.07 -1.557,0.111 -0.114,0.009 -0.229,0.019 -0.341,0.028 -0.508,0.044 -1.003,0.093 -1.48,0.147 -0.083,0.01 -0.161,0.02 -0.243,0.03 -0.425,0.051 -0.838,0.106 -1.238,0.165 -0.083,0.012 -0.167,0.023 -0.249,0.036 -0.435,0.067 -0.853,0.139 -1.255,0.216 -0.09,0.017 -0.178,0.035 -0.267,0.053 -0.378,0.076 -0.745,0.154 -1.093,0.239 -0.031,0.007 -0.064,0.014 -0.095,0.022 -0.367,0.09 -0.712,0.187 -1.045,0.288 -0.077,0.023 -0.153,0.047 -0.229,0.07 -0.324,0.103 -0.635,0.208 -0.925,0.321 -0.034,0.013 -0.064,0.027 -0.098,0.04 -0.264,0.105 -0.511,0.214 -0.745,0.328 -0.054,0.026 -0.109,0.051 -0.162,0.078 -0.244,0.124 -0.472,0.252 -0.682,0.385 -0.042,0.026 -0.08,0.054 -0.12,0.081 -0.186,0.124 -0.357,0.251 -0.513,0.382 -0.026,0.022 -0.055,0.043 -0.081,0.065 -0.166,0.146 -0.312,0.298 -0.442,0.454 -0.029,0.035 -0.057,0.071 -0.084,0.107 -0.125,0.162 -0.238,0.326 -0.325,0.497 0,0.001 0,0.002 -0.001,0.003 -0.087,0.171 -0.147,0.349 -0.196,0.53 -0.006,0.021 -0.018,0.041 -0.023,0.063 -7.65,31.986 -15.3,63.967 -22.95,95.954 -0.667,2.895 -1.52,6.777 -1.831,9.732 -0.07,0.663 -0.135,1.288 -0.199,1.896 -0.21,1.553 -0.378,3.06 -0.469,4.438 -0.024,0.374 -0.047,0.765 -0.068,1.167 -0.252,3.135 -0.328,5.677 -0.166,8.671 0.045,2.409 0.21,5.538 0.52,7.883 0.214,1.998 0.575,4.534 0.947,6.703 0.013,0.077 0.026,0.153 0.039,0.229 0.024,0.142 0.049,0.278 0.074,0.416 0.022,0.121 0.043,0.247 0.065,0.364 0.011,0.057 0.022,0.119 0.033,0.176 0.007,0.037 0.014,0.076 0.021,0.112 0.01,0.053 0.021,0.11 0.032,0.164 0.437,2.309 1.029,5.218 1.702,7.378 0.638,2.337 1.635,5.412 2.426,7.701 0.708,2.049 1.788,4.683 2.703,6.731 0,10e-4 10e-4,0.003 10e-4,0.004 0.89,2.22 2.381,5.049 3.522,7.15 0.08,0.146 0.159,0.283 0.238,0.429 0.017,0.032 0.035,0.067 0.051,0.1 1.159,2.296 2.948,5.227 4.455,7.334 1.236,1.849 2.472,3.565 3.711,5.191 1.343,1.761 3.216,4.046 4.691,5.697 0.091,0.103 0.191,0.211 0.286,0.316 0.15,0.167 0.303,0.346 0.451,0.506 0.581,0.631 1.235,1.317 1.918,2.019 1.008,1.044 2.034,2.079 2.917,2.955 2.168,2.15 4.539,4.158 6.62,5.813 0.15,0.123 0.302,0.246 0.445,0.361 0.827,0.668 1.788,1.392 2.785,2.115 0.699,0.519 1.292,0.948 1.722,1.259 0.266,0.193 1.678,1.203 3.785,2.551 0.056,0.036 0.11,0.07 0.167,0.106 1.171,0.746 2.545,1.587 4.058,2.451 1.082,0.628 2.363,1.322 3.388,1.843 2.96,1.504 2.975,1.511 5.932,2.845 0.022,0.011 0.046,0.021 0.068,0.031 0.142,0.063 1,0.441 2.337,0.983 0.656,0.27 1.304,0.523 1.948,0.771 0.484,0.186 0.993,0.378 1.531,0.576 0.133,0.048 0.272,0.105 0.405,0.152 0.17,0.061 0.371,0.131 0.585,0.206 1.248,0.444 2.593,0.897 3.977,1.318 0.59,0.18 1.657,0.504 3.071,0.891 0.04,0.011 0.081,0.022 0.121,0.033 0.216,0.059 0.439,0.118 0.67,0.18 1.407,0.375 2.932,0.747 4.547,1.094 0.157,0.034 0.314,0.068 0.474,0.102 0.123,0.025 0.246,0.051 0.37,0.076 0.824,0.171 1.677,0.337 2.562,0.493 0.122,0.021 0.244,0.04 0.366,0.061 0.356,0.063 0.746,0.127 1.174,0.195 0.114,0.019 0.228,0.037 0.342,0.055 2.771,0.433 6.871,0.946 11.935,1.154 0.849,0.035 1.666,0.057 2.461,0.07 0.096,0.002 0.193,0.004 0.288,0.006 0.141,0.002 0.278,0.004 0.417,0.005 2.363,0.032 4.475,-0.017 6.213,-0.118 2.927,-0.148 4.875,-0.382 5.452,-0.458 0.093,-0.012 0.202,-0.026 0.298,-0.039 2.042,-0.221 4.099,-0.497 5.827,-0.833 0.031,-0.006 0.065,-0.013 0.096,-0.019 1.732,-0.303 3.803,-0.689 5.385,-1.095 0.268,-0.068 0.549,-0.14 0.837,-0.213 0.498,-0.115 0.983,-0.23 1.433,-0.344 2.012,-0.507 4.671,-1.277 6.631,-1.954 2.275,-0.787 5.325,-1.814 7.506,-2.835 0.173,-0.081 0.357,-0.166 0.54,-0.25 1.651,-0.721 3.368,-1.497 5.244,-2.429 0.312,-0.152 0.615,-0.304 0.9,-0.451 0.045,-0.023 0.095,-0.05 0.142,-0.073 0.211,-0.108 0.427,-0.222 0.644,-0.335 2.008,-1.048 4.423,-2.348 6.179,-3.527 0.027,-0.019 0.058,-0.038 0.085,-0.057 2.192,-1.359 4.178,-2.712 5.881,-3.939 0.101,-0.072 0.207,-0.146 0.305,-0.218 0.058,-0.042 0.12,-0.09 0.18,-0.133 3.464,-2.527 5.641,-4.438 5.779,-4.56 0.02,-0.018 0.04,-0.035 0.06,-0.052 0.076,-0.065 0.158,-0.134 0.232,-0.197 0.57,-0.488 1.164,-1.025 1.766,-1.58 2.691,-2.418 5.566,-5.159 9.079,-9.264 1.604,-1.749 3.497,-4.273 4.908,-6.212 0.004,-0.005 0.008,-0.011 0.012,-0.016 0.021,-0.027 0.043,-0.059 0.063,-0.086 0.383,-0.526 0.788,-1.113 1.199,-1.725 1.079,-1.556 2.132,-3.135 3.137,-4.774 1.354,-2.031 2.85,-4.934 3.957,-7.108 0.465,-0.913 0.935,-1.917 1.4,-2.962 0.665,-1.415 1.283,-2.797 1.807,-4.067 0.81,-1.961 1.735,-4.519 2.467,-6.704 0.024,-0.067 0.052,-0.141 0.076,-0.207 0.679,-1.859 1.273,-4.297 1.829,-6.413 0.137,-0.517 0.271,-1.017 0.398,-1.478 l 21.071,-88.102 c 0.641,-2.676 1.271,-5.312 1.878,-7.852 0.004,-0.018 0.002,-0.036 0.006,-0.053 0.039,-0.188 0.06,-0.382 0.06,-0.582 z"
   fill="url(#gradient_blue)" />
		<path
   style="fill:url(#gradient_red)"
   id="path33"
   d="m 522.998,303.062 c -0.004,-0.075 -0.007,-0.156 -0.01,-0.232 -0.022,-1.879 -0.108,-3.702 -0.229,-5.491 -0.04,-0.754 -0.088,-1.483 -0.147,-2.146 -0.081,-0.908 -0.191,-1.93 -0.319,-2.977 -0.035,-0.298 -0.073,-0.592 -0.111,-0.887 -0.113,-0.881 -0.237,-1.757 -0.363,-2.59 -0.019,-0.12 -0.036,-0.24 -0.056,-0.359 -0.063,-0.404 -0.126,-0.798 -0.188,-1.169 -0.095,-0.555 -0.197,-1.088 -0.298,-1.625 -0.023,-0.122 -0.044,-0.246 -0.067,-0.367 -0.402,-2.1 -0.846,-4.044 -1.3,-5.824 -0.005,-0.019 -0.01,-0.038 -0.015,-0.057 -0.764,-2.989 -1.549,-5.5 -2.191,-7.359 -0.02,-0.057 -0.043,-0.121 -0.063,-0.178 -0.021,-0.058 -0.04,-0.122 -0.06,-0.18 -0.232,-0.672 -0.5,-1.413 -0.784,-2.174 -0.144,-0.39 -0.299,-0.796 -0.457,-1.21 -0.031,-0.08 -0.061,-0.159 -0.092,-0.239 -0.108,-0.281 -0.219,-0.563 -0.334,-0.854 -0.169,-0.426 -0.338,-0.842 -0.505,-1.249 -0.035,-0.084 -0.069,-0.167 -0.104,-0.253 -0.166,-0.401 -0.331,-0.793 -0.489,-1.157 -0.048,-0.108 -0.1,-0.226 -0.149,-0.337 -0.678,-1.556 -1.461,-3.23 -2.356,-5.008 -0.24,-0.479 -0.477,-0.943 -0.707,-1.386 -0.021,-0.041 -0.039,-0.079 -0.061,-0.12 -0.043,-0.082 -0.091,-0.169 -0.135,-0.253 -0.044,-0.084 -0.091,-0.174 -0.134,-0.255 -0.037,-0.07 -0.079,-0.146 -0.117,-0.217 -0.027,-0.051 -0.056,-0.103 -0.084,-0.155 -0.117,-0.216 -0.236,-0.437 -0.361,-0.663 -0.029,-0.053 -0.059,-0.105 -0.088,-0.159 -0.121,-0.219 -0.244,-0.44 -0.37,-0.666 -0.041,-0.073 -0.083,-0.146 -0.124,-0.22 -0.113,-0.201 -0.228,-0.402 -0.344,-0.605 -0.057,-0.099 -0.113,-0.198 -0.171,-0.297 -0.104,-0.18 -0.206,-0.358 -0.311,-0.538 -0.067,-0.116 -0.135,-0.229 -0.201,-0.344 -0.097,-0.164 -0.192,-0.326 -0.289,-0.488 -0.068,-0.115 -0.136,-0.228 -0.203,-0.34 -0.103,-0.17 -0.204,-0.338 -0.305,-0.504 -0.05,-0.082 -0.099,-0.161 -0.147,-0.24 -0.122,-0.201 -0.243,-0.396 -0.363,-0.586 -0.006,-0.01 -0.013,-0.021 -0.019,-0.031 -0.007,-0.01 -0.014,-0.021 -0.02,-0.03 -0.096,-0.153 -0.193,-0.309 -0.286,-0.454 -0.358,-0.561 -0.761,-1.164 -1.184,-1.784 -1.014,-1.498 -2.117,-3.061 -3.021,-4.346 -0.441,-0.627 -0.903,-1.245 -1.374,-1.856 -1.923,-2.555 -4.494,-5.457 -6.582,-7.593 -0.354,-0.362 -0.728,-0.736 -1.115,-1.116 -0.348,-0.361 -0.693,-0.718 -1.025,-1.062 -1.424,-1.472 -3.279,-3.12 -5.082,-4.655 -0.176,-0.152 -0.345,-0.312 -0.521,-0.463 -0.809,-0.692 -1.631,-1.371 -2.466,-2.034 -1.731,-1.335 -3.878,-2.912 -5.95,-4.342 -0.462,-0.324 -0.915,-0.638 -1.338,-0.927 -0.518,-0.354 -1.121,-0.733 -1.738,-1.115 -0.026,-0.017 -0.055,-0.036 -0.081,-0.052 -0.052,-0.032 -0.105,-0.063 -0.157,-0.096 -0.343,-0.21 -0.68,-0.415 -1.021,-0.62 -0.45,-0.273 -0.898,-0.547 -1.357,-0.815 -0.089,-0.053 -0.188,-0.113 -0.273,-0.164 -1.17,-0.705 -2.77,-1.576 -3.987,-2.194 -0.08,-0.041 -0.15,-0.076 -0.227,-0.115 -0.044,-0.023 -0.089,-0.045 -0.133,-0.067 -1.582,-0.804 -2.259,-1.145 -3.177,-1.572 -0.744,-0.352 -1.473,-0.682 -2.176,-0.991 -0.085,-0.038 -0.163,-0.074 -0.253,-0.114 -0.02,-0.009 -0.822,-0.367 -2.126,-0.899 -2.228,-0.917 -3.847,-1.499 -4.129,-1.599 -0.523,-0.186 -0.988,-0.35 -1.452,-0.51 -0.003,-0.001 -0.007,-0.002 -0.01,-0.003 -0.317,-0.11 -0.637,-0.219 -0.972,-0.33 -0.016,-0.005 -0.031,-0.011 -0.047,-0.016 -0.247,-0.082 -0.504,-0.166 -0.778,-0.254 -0.43,-0.139 -0.863,-0.276 -1.302,-0.41 -0.476,-0.145 -0.896,-0.271 -1.281,-0.384 -0.029,-0.009 -0.053,-0.016 -0.082,-0.025 -0.041,-0.012 -0.084,-0.024 -0.125,-0.037 -0.022,-0.007 -0.046,-0.014 -0.068,-0.02 -0.834,-0.245 -1.73,-0.489 -2.527,-0.697 -0.425,-0.113 -0.77,-0.202 -1.098,-0.282 -0.002,0 -0.004,-0.001 -0.006,-0.001 -0.716,-0.18 -1.208,-0.297 -1.248,-0.304 -0.001,0 -0.003,-0.001 -0.005,-0.001 -0.563,-0.137 -1.554,-0.366 -2.914,-0.643 -0.348,-0.071 -0.72,-0.145 -1.029,-0.206 -0.457,-0.09 -0.937,-0.184 -1.823,-0.336 -0.724,-0.127 -1.454,-0.246 -2.189,-0.354 -0.134,-0.02 -0.291,-0.042 -0.457,-0.066 -0.307,-0.044 -0.614,-0.086 -0.921,-0.127 -0.08,-0.011 -0.157,-0.021 -0.241,-0.032 -0.252,-0.033 -0.504,-0.065 -0.756,-0.096 -0.092,-0.011 -0.188,-0.022 -0.284,-0.034 -0.244,-0.029 -0.488,-0.058 -0.732,-0.086 -0.195,-0.022 -0.403,-0.044 -0.609,-0.066 -0.145,-0.016 -0.29,-0.032 -0.435,-0.047 -0.292,-0.03 -0.596,-0.06 -0.904,-0.089 -0.066,-0.006 -0.133,-0.013 -0.198,-0.019 -0.15,-0.014 -0.292,-0.029 -0.445,-0.042 -0.104,-0.009 -0.198,-0.015 -0.301,-0.024 -0.581,-0.05 -1.151,-0.096 -1.71,-0.136 -0.156,-0.011 -0.313,-0.022 -0.467,-0.033 -0.64,-0.044 -1.259,-0.081 -1.856,-0.112 v 0 c -1.45,-0.075 -2.766,-0.116 -3.86,-0.125 -0.213,-10e-4 -0.396,-10e-4 -0.599,-10e-4 -0.795,-0.005 -1.513,-0.003 -2.135,0.007 -1.285,0.017 -2.224,0.05 -2.842,0.079 -2.165,0.091 -4.122,0.266 -6.075,0.491 -1.599,0.16 -3.184,0.354 -4.603,0.589 -1.528,0.223 -3.319,0.563 -4.896,0.894 -1.27,0.249 -2.523,0.519 -3.592,0.815 -0.358,0.1 -0.737,0.208 -1.114,0.316 -1.078,0.285 -2.146,0.575 -3.072,0.813 -2.002,0.514 -4.587,1.487 -6.541,2.162 -2.804,0.969 -6.47,2.5 -9.097,3.878 -0.006,0.003 -0.012,0.006 -0.018,0.009 -0.342,0.167 -0.674,0.33 -0.989,0.486 -2.15,1.068 -5.001,2.544 -7.011,3.858 -0.004,0.002 -0.008,0.005 -0.011,0.007 -1.861,1.125 -4.097,2.614 -5.8,3.778 -2.027,1.387 -4.673,3.335 -6.504,4.972 -1.909,1.475 -4.187,3.762 -5.973,5.383 -1.564,1.419 -6.512,6.593 -10.341,11.83 -1.373,1.876 -3.191,4.354 -4.394,6.408 -1.352,2.006 -2.842,4.76 -3.932,6.861 -0.995,1.917 -2.259,4.46 -3.588,7.631 -1.024,2.242 -2.061,5.28 -2.814,7.581 -0.005,0.014 -0.009,0.03 -0.014,0.044 -0.779,2.396 -1.532,5.008 -2.213,7.845 -7.65,31.986 -15.299,63.967 -22.949,95.952 -0.004,0.017 -0.002,0.035 -0.005,0.052 -0.042,0.19 -0.064,0.386 -0.064,0.587 0,0.033 0.003,0.067 0.005,0.101 0.007,0.202 0.032,0.408 0.082,0.621 0.003,0.013 0.004,0.025 0.007,0.038 0.054,0.219 0.136,0.444 0.235,0.674 0.019,0.044 0.037,0.088 0.057,0.132 0.104,0.227 0.23,0.457 0.378,0.693 0.027,0.043 0.058,0.087 0.085,0.13 0.158,0.24 0.332,0.485 0.534,0.736 0.008,0.009 0.014,0.019 0.022,0.028 0.208,0.256 0.446,0.519 0.701,0.785 0.049,0.052 0.097,0.103 0.147,0.154 0.256,0.261 0.534,0.526 0.834,0.798 0.057,0.051 0.118,0.104 0.177,0.155 0.323,0.284 0.662,0.572 1.034,0.868 15.76,12.516 70.197,30.145 121.588,39.376 1.128,0.202 2.24,0.397 3.346,0.589 0.254,0.043 0.507,0.087 0.759,0.13 1.075,0.185 2.141,0.364 3.194,0.537 0.175,0.029 0.348,0.057 0.522,0.085 0.938,0.153 1.869,0.303 2.79,0.447 0.221,0.034 0.442,0.069 0.662,0.104 1.01,0.157 2.009,0.309 2.997,0.455 0.24,0.036 0.478,0.07 0.717,0.105 0.905,0.133 1.802,0.262 2.688,0.386 0.128,0.018 0.258,0.037 0.386,0.055 0.971,0.135 1.928,0.263 2.875,0.387 0.241,0.031 0.481,0.063 0.721,0.094 0.943,0.122 1.879,0.239 2.798,0.351 0.101,0.013 0.199,0.023 0.3,0.035 0.851,0.103 1.688,0.199 2.518,0.292 0.216,0.024 0.432,0.048 0.646,0.072 0.878,0.097 1.746,0.188 2.601,0.274 0.177,0.018 0.35,0.034 0.524,0.052 0.76,0.075 1.509,0.146 2.249,0.214 0.159,0.014 0.32,0.029 0.478,0.044 0.825,0.073 1.636,0.141 2.435,0.203 0.196,0.016 0.391,0.03 0.585,0.045 0.765,0.059 1.521,0.113 2.261,0.162 0.058,0.004 0.116,0.009 0.173,0.013 0.779,0.051 1.54,0.094 2.292,0.135 0.183,0.01 0.365,0.02 0.547,0.028 0.738,0.037 1.467,0.071 2.178,0.098 0.104,0.004 0.204,0.007 0.307,0.011 0.644,0.023 1.275,0.042 1.896,0.057 0.147,0.004 0.296,0.008 0.442,0.011 0.673,0.015 1.332,0.023 1.978,0.027 0.138,10e-4 0.271,10e-4 0.408,10e-4 0.587,0.002 1.163,0 1.727,-0.007 0.087,-10e-4 0.177,-10e-4 0.264,-0.003 0.614,-0.009 1.211,-0.023 1.796,-0.043 0.136,-0.004 0.27,-0.01 0.404,-0.015 0.586,-0.021 1.161,-0.047 1.716,-0.079 0.028,-0.002 0.054,-0.004 0.081,-0.005 0.535,-0.032 1.051,-0.069 1.556,-0.111 0.114,-0.009 0.229,-0.019 0.343,-0.028 0.508,-0.045 1.002,-0.093 1.479,-0.147 0.083,-0.01 0.162,-0.021 0.244,-0.03 0.426,-0.051 0.839,-0.105 1.238,-0.164 0.082,-0.013 0.166,-0.023 0.246,-0.036 0.437,-0.066 0.854,-0.14 1.259,-0.216 0.089,-0.018 0.176,-0.035 0.263,-0.053 0.381,-0.075 0.751,-0.155 1.102,-0.24 0.028,-0.007 0.059,-0.013 0.087,-0.02 0.368,-0.091 0.714,-0.188 1.049,-0.289 0.076,-0.022 0.151,-0.046 0.226,-0.069 0.325,-0.103 0.637,-0.209 0.928,-0.321 0.032,-0.013 0.061,-0.026 0.093,-0.039 0.266,-0.104 0.514,-0.215 0.749,-0.329 0.054,-0.025 0.109,-0.051 0.161,-0.077 0.245,-0.124 0.473,-0.252 0.683,-0.385 0.041,-0.027 0.079,-0.055 0.12,-0.081 0.185,-0.124 0.356,-0.251 0.513,-0.382 0.026,-0.022 0.056,-0.043 0.081,-0.065 0.166,-0.146 0.311,-0.298 0.441,-0.453 0.03,-0.036 0.058,-0.072 0.086,-0.108 0.124,-0.161 0.237,-0.325 0.323,-0.496 10e-4,-0.002 0.002,-0.004 0.003,-0.006 0.086,-0.169 0.146,-0.346 0.193,-0.525 0.007,-0.022 0.02,-0.043 0.024,-0.065 l 20.619,-86.206 c 0.799,-3.34 1.58,-6.608 2.331,-9.746 1.285,-5.4 2.048,-10.592 2.437,-15.554 0.02,-0.167 0.043,-0.347 0.062,-0.511 0.268,-2.451 0.364,-5.743 0.252,-8.2 z"
   fill="url(#gradient_red)" />
	</g>
</svg>
